<?xml version="1.0" encoding="iso-8859-1"?>
<!-- Uploaded to: SVG Repo, www.svgrepo.com, Generator: SVG Repo Mixer Tools -->
<svg version="1.1" id="Layer_1" xmlns="http://www.w3.org/2000/svg" xmlns:xlink="http://www.w3.org/1999/xlink" 
	 viewBox="0 0 161.869 161.869" xml:space="preserve">
<g>
	<g>
		<g>
			<rect x="76.804" y="16.9" style="fill:#A8D626;" width="8" height="50"/>
		</g>
		<g>
			<path d="M86.804,67.9h-11v-53h11V67.9z M78.804,64.9h5v-47h-5V64.9z"/>
		</g>
	</g>
	<g>
		<g>
			<path style="fill:#FF8400;" d="M80.804,160.369c-14,0-31-116.016,0-116.016C115.804,44.353,92.804,160.369,80.804,160.369z"/>
		</g>
		<g>
			<path d="M81.304,161.869c-6.026,0-10.535-13.705-13.256-25.201c-3.559-15.033-5.684-33.401-5.684-49.134
				c0-12.695,1.38-23.354,3.992-30.823c3.215-9.195,8.244-13.857,14.948-13.857c7.123,0,12.457,4.266,15.853,12.678
				c2.804,6.946,4.226,16.595,4.226,28.679C101.384,115.58,90.807,161.869,81.304,161.869z M81.304,45.853
				c-5.291,0-9.368,3.986-12.116,11.848c-2.501,7.155-3.824,17.471-3.824,29.833c0,36.085,10.086,71.335,15.94,71.335
				c1.713,0,6.095-6.612,10.561-24.356c4.081-16.215,6.518-35.02,6.518-50.302c0-11.697-1.348-20.968-4.008-27.556
				C91.483,49.487,87.085,45.853,81.304,45.853z"/>
		</g>
	</g>
	<g>
		<g>
			<path style="fill:#A8D626;" d="M100.994,17.139c0-5.086-4.123-9.208-9.208-9.208c-2.337,0-4.465,0.878-6.089,2.313
				C85.454,5.376,81.442,1.5,76.513,1.5c-4.831,0-8.785,3.722-9.17,8.453c-3.748,1.166-6.469,4.661-6.469,8.794
				c0,2.228,0.793,4.27,2.11,5.864c-0.321,0.935-0.502,1.934-0.502,2.978c0,5.085,4.123,9.207,9.208,9.207
				c3.958,0,7.322-2.501,8.624-6.005c0.756,4.324,4.52,7.614,9.061,7.614c5.084,0,9.206-4.123,9.206-9.208
				c0-1.714-0.477-3.314-1.293-4.688C99.534,22.829,100.994,20.158,100.994,17.139z"/>
		</g>
		<g>
			<path d="M89.375,39.904c-4.01,0-7.56-2.207-9.391-5.564c-2,2.449-5.035,3.956-8.294,3.956c-5.904,0-10.708-4.803-10.708-10.707
				c0-0.9,0.116-1.798,0.346-2.677c-1.265-1.797-1.954-3.956-1.954-6.164c0-4.386,2.614-8.247,6.599-9.893
				C66.862,3.816,71.313,0,76.513,0c4.844,0,8.957,3.22,10.263,7.683c1.535-0.816,3.252-1.251,5.01-1.251
				c5.904,0,10.708,4.803,10.708,10.708c0,2.971-1.198,5.731-3.326,7.745c0.601,1.358,0.914,2.827,0.914,4.312
				C100.082,35.101,95.279,39.904,89.375,39.904z M80.314,29.291c0.046,0,0.092,0.002,0.138,0.006
				c0.675,0.062,1.224,0.568,1.341,1.235c0.646,3.692,3.834,6.372,7.583,6.372c4.249,0,7.706-3.458,7.706-7.708
				c0-1.374-0.374-2.73-1.082-3.922c-0.392-0.66-0.223-1.508,0.392-1.967c1.972-1.475,3.103-3.723,3.103-6.168
				c0-4.25-3.458-7.708-7.708-7.708c-1.872,0-3.682,0.688-5.096,1.938c-0.432,0.382-1.044,0.482-1.576,0.258
				c-0.531-0.224-0.887-0.732-0.916-1.308C83.994,6.215,80.618,3,76.513,3c-3.981,0-7.352,3.107-7.675,7.075
				c-0.05,0.61-0.465,1.129-1.049,1.311c-3.239,1.008-5.415,3.966-5.415,7.362c0,1.787,0.627,3.53,1.767,4.908
				c0.333,0.402,0.432,0.949,0.263,1.443c-0.279,0.814-0.421,1.652-0.421,2.491c0,4.25,3.458,7.707,7.708,7.707
				c3.2,0,6.1-2.021,7.218-5.028C79.129,29.676,79.693,29.291,80.314,29.291z"/>
		</g>
	</g>
	<g>
		<g>
			<path d="M82.804,78.9h-18c-0.829,0-1.5-0.671-1.5-1.5s0.671-1.5,1.5-1.5h18c0.829,0,1.5,0.671,1.5,1.5
				C84.304,78.229,83.633,78.9,82.804,78.9z"/>
		</g>
	</g>
	<g>
		<g>
			<path d="M98.804,92.9h-16c-0.829,0-1.5-0.671-1.5-1.5s0.671-1.5,1.5-1.5h16c0.829,0,1.5,0.671,1.5,1.5
				C100.304,92.229,99.633,92.9,98.804,92.9z"/>
		</g>
	</g>
	<g>
		<g>
			<path d="M76.804,104.9h-12c-0.829,0-1.5-0.671-1.5-1.5s0.671-1.5,1.5-1.5h12c0.829,0,1.5,0.671,1.5,1.5
				C78.304,104.229,77.633,104.9,76.804,104.9z"/>
		</g>
	</g>
	<g>
		<g>
			<path d="M95.804,119.9h-12c-0.829,0-1.5-0.671-1.5-1.5s0.671-1.5,1.5-1.5h12c0.829,0,1.5,0.671,1.5,1.5
				C97.304,119.229,96.633,119.9,95.804,119.9z"/>
		</g>
	</g>
	<g>
		<g>
			<path d="M77.804,129.9h-8c-0.829,0-1.5-0.671-1.5-1.5c0-0.829,0.671-1.5,1.5-1.5h8c0.829,0,1.5,0.671,1.5,1.5
				C79.304,129.229,78.633,129.9,77.804,129.9z"/>
		</g>
	</g>
</g>
</svg>