<?xml version="1.0" encoding="utf-8"?>
<!-- Uploaded to: SVG Repo, www.svgrepo.com, Generator: SVG Repo Mixer Tools -->
<svg width="800px" height="800px" viewBox="0 0 1024 1024" class="icon"  version="1.1" xmlns="http://www.w3.org/2000/svg"><path d="M719.938 230.859c-51.112-23.937-127.832-43.691-207.938-5.408-80.105-38.283-156.828-18.529-207.94 5.408-131.311 66.452-220.194 193.816-220.194 340.1C83.866 785.81 275.552 960 512 960c236.447 0 428.134-174.19 428.134-389.041 0-146.284-88.886-273.648-220.196-340.1z" fill="#FF3B30" /><path d="M719.938 230.859C668.826 206.924 592.106 187.17 512 225.452c-80.105-38.281-156.828-18.528-207.94 5.408-64.04 32.407-117.869 79.379-156.339 135.894 2.706-1.286 107.209-50.764 179.53-45.27 0 0 80.616-3.268 57.855 81.764-0.288 1.018 0.821 1.462 1.672 0.654 44.631-43.328 93.12-72.359 125.222-72.359 32.101 0 80.588 29.032 125.234 72.359 0.835 0.808 1.945 0.364 1.658-0.654-22.76-85.032 57.854-81.764 57.854-81.764 72.322-5.494 176.826 43.984 179.53 45.27-38.468-56.515-92.298-103.488-156.338-135.895z" fill="#0DB14B" /><path d="M327.251 321.481c-35.205-2.672-77.976 7.689-112.978 19.175-12.185 13.481-23.461 27.668-33.606 42.572 2.704-1.286 107.208-50.767 179.53-45.275 0 0 6.883-0.209 15.983 1.48-18.147-19.144-48.929-17.952-48.929-17.952zM876.276 366.756c-2.704-1.287-107.208-50.769-179.53-45.275 0 0-72.277-2.8-60.438 69.324 11.32 8.808 22.715 18.742 33.87 29.567 0.834 0.813 1.946 0.371 1.659-0.651-22.762-85.032 57.855-81.768 57.855-81.768 48.662-3.696 116.859 22.534 152.958 38.214l-6.374-9.411M512 331.543c-24.305 0-58.001 16.681-92.306 43.569 3.187 11.205 3.444 25.602-1.643 44.607-0.29 1.022 0.821 1.464 1.671 0.651 44.633-43.32 93.12-72.356 125.222-72.356 8.712 0 18.699 2.301 29.422 6.282-23.39-14.292-45.236-22.753-62.366-22.753z" fill="#020202" /><path d="M719.938 230.859c-27.522-12.888-62.506-24.474-101.409-26.529 95.69 71.34 156.881 179.476 156.881 300.74 0 214.85-191.686 389.041-428.134 389.041-29.434 0-58.17-2.707-85.934-7.849C331.813 932.605 418.364 960 512 960c236.447 0 428.134-174.191 428.134-389.04 0-146.287-88.886-273.65-220.196-340.101z" fill="#020202" /><path d="M512.107 262.333c-5.428-122.468 95.768-198.331 95.768-198.331H416.124s101.239 75.863 95.787 198.331" fill="#0DB14B" /><path d="M607.699 64H416.124s15.402 11.647 33.839 32.946h108.495s-35.197 26.602-62.973 73.45c10.828 26.526 17.968 57.286 16.425 91.936h0.197C506.681 139.864 607.875 64 607.875 64h-0.176z" fill="#030504" /><path d="M225.102 756.92a22.277 22.277 0 0 1-16.195-6.949c-4.806-5.053-116.93-125.734-48.023-295.648 4.637-11.466 17.726-16.983 29.174-12.341 11.469 4.652 16.99 17.711 12.344 29.178-57.814 142.563 35.036 243.749 39.01 247.986 8.46 8.997 8.058 23.162-0.911 31.643a22.355 22.355 0 0 1-15.399 6.131z" fill="#FFFFFF" /></svg>